<svg xmlns="http://www.w3.org/2000/svg" viewBox="0 0 417.26 52.53"><defs><style>.cls-1{fill:#c6b796;}</style></defs><g id="Capa_2" data-name="Capa 2"><g id="Capa_1-2" data-name="Capa 1"><path d="M101.94,43H83.86l-2.43,7.71H69.27L85.81,1.68H100l16.54,49.07H104.37ZM98.6,32.53l-5.7-18-5.7,18Z"/><path d="M121.05,6.31a6.26,6.26,0,1,1,12.51,0,6.26,6.26,0,1,1-12.51,0Zm1,9.39h10.43V50.75H122.09Z"/><path d="M162.76,15V26.92c-4.31-.7-10.43,1-10.43,8V50.75H141.9v-35h10.43v6.24C153.72,17.24,158.38,15,162.76,15Z"/><path d="M202.24,15.7V50.75H191.81V47.46c-1.88,2.59-5.35,4.27-9.94,4.27-7,0-13-5-13-14.51V15.7H179.3v20c0,4.35,2.71,6.38,6,6.38,3.82,0,6.46-2.24,6.46-7.22V15.7Z"/><path d="M224.83,25.8V38.2c0,3,2.57,3.3,7.16,3v9.53C218.36,52.15,214.4,48,214.4,38.2V25.8h-5.56V15.7h5.56V9l10.43-3.15V15.7H232V25.8Z"/><path d="M255.52,32.19V25.08h4.86v1.21H257V28h3.14v1.22H257V31h3.35v1.21Z"/><path d="M274.73,32.62a8.41,8.41,0,0,0,.74.68l-1,.8a5.37,5.37,0,0,1-1.68-1.83h-.24a3.7,3.7,0,0,1-1.83-.44,3,3,0,0,1-1.2-1.28,4.64,4.64,0,0,1,0-3.86,3,3,0,0,1,1.2-1.26,3.6,3.6,0,0,1,1.83-.45,3.56,3.56,0,0,1,1.82.45,3,3,0,0,1,1.19,1.26,4.32,4.32,0,0,1,.41,1.93,4.2,4.2,0,0,1-.45,2,3,3,0,0,1-1.29,1.27A3.25,3.25,0,0,0,274.73,32.62Zm-3.61-2.18a1.66,1.66,0,0,0,1.39.62,1.69,1.69,0,0,0,1.39-.63,2.86,2.86,0,0,0,.5-1.8,2.82,2.82,0,0,0-.5-1.8,1.71,1.71,0,0,0-1.39-.62,1.68,1.68,0,0,0-1.39.62,2.76,2.76,0,0,0-.5,1.8A2.81,2.81,0,0,0,271.12,30.44Z"/><path d="M285.69,31.51a3.05,3.05,0,0,1-.77-2.25V25.08h1.51v4.25a1.86,1.86,0,0,0,.4,1.29,1.65,1.65,0,0,0,2.24,0,2,2,0,0,0,.38-1.29V25.08H291v4.18a3,3,0,0,1-.78,2.25,3.69,3.69,0,0,1-4.51,0Z"/><path d="M300.16,32.19V25.08h1.55v7.11Z"/><path d="M310.94,25.08h3.2a2.68,2.68,0,0,1,1.82.57,2,2,0,0,1,.65,1.55,1.93,1.93,0,0,1-.66,1.54,2.61,2.61,0,0,1-1.81.58h-1.65v2.87h-1.55Zm3,3.05c.81,0,1.21-.31,1.21-.92s-.4-.93-1.21-.93h-1.45v1.85Z"/><path d="M330.08,32.19l-.68-1.58h-3.29l-.68,1.58h-1.55l3.24-7.11h1.24l3.24,7.11Zm-3.46-2.76h2.28l-1.14-2.67Z"/><path d="M345.81,25.08H347v7.11h-1.36V28.31L344,32.19h-1l-1.63-3.83v3.83h-1.35V25.08h1.22l2.28,5.24Z"/><path d="M356.27,32.19V25.08h1.54v7.11Z"/><path d="M367.05,32.19V25.08h4.86v1.21h-3.36V28h3.15v1.22h-3.15V31h3.36v1.21Z"/><path d="M385.45,25.08h1.46v7.11h-1.15l-3.52-4.53v4.53H380.8V25.08h1.14l3.51,4.53Z"/><path d="M397.76,32.19V26.35h-2.2V25.08h6v1.27h-2.21v5.84Z"/><path d="M411.18,31.84a3,3,0,0,1-1.2-1.28,4.64,4.64,0,0,1,0-3.86,3,3,0,0,1,1.2-1.26A3.6,3.6,0,0,1,413,25a3.56,3.56,0,0,1,1.82.45A3,3,0,0,1,416,26.7a4.75,4.75,0,0,1,0,3.86,3,3,0,0,1-1.19,1.28,3.66,3.66,0,0,1-1.82.44A3.7,3.7,0,0,1,411.18,31.84Zm3.22-1.41a2.86,2.86,0,0,0,.5-1.8,2.82,2.82,0,0,0-.5-1.8,1.87,1.87,0,0,0-2.78,0,2.76,2.76,0,0,0-.5,1.8,2.81,2.81,0,0,0,.5,1.81,1.66,1.66,0,0,0,1.39.62A1.68,1.68,0,0,0,414.4,30.43Z"/><path d="M261.57,46.81v3.48a4.83,4.83,0,0,1-1.2.39,7.33,7.33,0,0,1-1.41.14,4.06,4.06,0,0,1-1.94-.44,3,3,0,0,1-1.27-1.26,4.5,4.5,0,0,1,0-3.88A3,3,0,0,1,257,44a3.83,3.83,0,0,1,1.89-.45,4.69,4.69,0,0,1,1.42.21,2.94,2.94,0,0,1,1.08.59l-.49,1.12a3.8,3.8,0,0,0-1-.52,3,3,0,0,0-1-.16q-2,0-2,2.4c0,1.63.71,2.44,2.13,2.44a4.68,4.68,0,0,0,1.16-.15V47.89H258.8V46.81Z"/><path d="M275.51,50.73l-.68-1.58h-3.29l-.68,1.58h-1.55l3.24-7.11h1.24L277,50.73ZM272.05,48h2.28l-1.14-2.66Z"/><path d="M285.69,50.61a3.73,3.73,0,0,1-1.23-.61l.5-1.12a3.86,3.86,0,0,0,2.28.72,2.08,2.08,0,0,0,1-.21.69.69,0,0,0,.36-.61.6.6,0,0,0-.33-.53,4.29,4.29,0,0,0-1.16-.38,5.91,5.91,0,0,1-1.48-.46,1.81,1.81,0,0,1-.8-.67,1.76,1.76,0,0,1-.26-1,2,2,0,0,1,.35-1.15,2.37,2.37,0,0,1,1-.79,3.52,3.52,0,0,1,1.46-.29,4.94,4.94,0,0,1,1.45.22,3.08,3.08,0,0,1,1.11.6l-.5,1.12a3.27,3.27,0,0,0-2-.72,1.69,1.69,0,0,0-1,.24.76.76,0,0,0-.35.65.6.6,0,0,0,.13.4,1.16,1.16,0,0,0,.45.28,5,5,0,0,0,.9.25,4.89,4.89,0,0,1,2,.78,1.57,1.57,0,0,1,.6,1.3,1.88,1.88,0,0,1-.78,1.59,3.53,3.53,0,0,1-2.14.58A5.56,5.56,0,0,1,285.69,50.61Z"/><path d="M300,50.73V44.89h-2.21V43.62h6v1.27h-2.21v5.84Z"/><path d="M317.73,50.73H316.1l-.9-2.37a.72.72,0,0,0-.33-.39,1.33,1.33,0,0,0-.56-.11h-1v2.87h-1.53V43.62h3.14a2.79,2.79,0,0,1,1.86.54,1.91,1.91,0,0,1,.64,1.55A1.93,1.93,0,0,1,316,47.66a1.2,1.2,0,0,1,.9.86Zm-3-4a1.61,1.61,0,0,0,1-.23.79.79,0,0,0,.31-.7.81.81,0,0,0-.31-.71,1.7,1.7,0,0,0-1-.22h-1.41v1.86Z"/><path d="M327.38,50.38a3,3,0,0,1-1.2-1.28,4.64,4.64,0,0,1,0-3.86,2.92,2.92,0,0,1,1.2-1.26,3.6,3.6,0,0,1,1.83-.45A3.56,3.56,0,0,1,331,44a3,3,0,0,1,1.19,1.26,4.75,4.75,0,0,1,0,3.86A3,3,0,0,1,331,50.38a3.66,3.66,0,0,1-1.82.44A3.7,3.7,0,0,1,327.38,50.38ZM330.6,49a2.86,2.86,0,0,0,.5-1.8,2.82,2.82,0,0,0-.5-1.8,1.71,1.71,0,0,0-1.39-.62,1.68,1.68,0,0,0-1.39.62,2.76,2.76,0,0,0-.5,1.8,2.81,2.81,0,0,0,.5,1.81,1.86,1.86,0,0,0,2.78,0Z"/><path d="M345.72,43.62h1.45v7.11H346l-3.51-4.53v4.53h-1.45V43.62h1.14l3.52,4.52Z"/><path d="M357.22,50.38A3,3,0,0,1,356,49.1a4.64,4.64,0,0,1,0-3.86A3,3,0,0,1,357.22,44a3.6,3.6,0,0,1,1.83-.45,3.53,3.53,0,0,1,1.82.45,2.9,2.9,0,0,1,1.19,1.26,4.64,4.64,0,0,1,0,3.86,3,3,0,0,1-1.19,1.28,3.63,3.63,0,0,1-1.82.44A3.7,3.7,0,0,1,357.22,50.38ZM360.44,49a2.8,2.8,0,0,0,.5-1.8,2.76,2.76,0,0,0-.5-1.8,1.87,1.87,0,0,0-2.78,0,2.82,2.82,0,0,0-.5,1.8,2.87,2.87,0,0,0,.5,1.81,1.7,1.7,0,0,0,1.39.62A1.68,1.68,0,0,0,360.44,49Zm-.94-6h-.92l1-1.56H361Z"/><path d="M376.69,43.62h1.22v7.11h-1.37V46.85l-1.62,3.88h-1l-1.63-3.83v3.83h-1.36V43.62h1.23l2.27,5.24Z"/><path d="M386.56,50.73V43.62h1.54v7.11Z"/><path d="M398.19,50.37A3.1,3.1,0,0,1,397,49.09a4.6,4.6,0,0,1,0-3.84A3.07,3.07,0,0,1,398.19,44a3.71,3.71,0,0,1,1.86-.45,4,4,0,0,1,1.34.22,2.68,2.68,0,0,1,1.05.6L402,45.47a3.67,3.67,0,0,0-.92-.53,3,3,0,0,0-.95-.16,1.76,1.76,0,0,0-1.45.61,2.72,2.72,0,0,0-.51,1.78,2.75,2.75,0,0,0,.51,1.79,1.76,1.76,0,0,0,1.45.61,2.75,2.75,0,0,0,.95-.16,3.67,3.67,0,0,0,.92-.53l.49,1.12a2.83,2.83,0,0,1-1.05.61,4.23,4.23,0,0,1-1.34.21A3.71,3.71,0,0,1,398.19,50.37Z"/><path d="M412,50.38a3,3,0,0,1-1.19-1.28,4.64,4.64,0,0,1,0-3.86A3,3,0,0,1,412,44a3.6,3.6,0,0,1,1.83-.45,3.53,3.53,0,0,1,1.82.45,2.9,2.9,0,0,1,1.19,1.26,4.75,4.75,0,0,1,0,3.86,3,3,0,0,1-1.19,1.28,3.63,3.63,0,0,1-1.82.44A3.7,3.7,0,0,1,412,50.38ZM415.23,49a2.86,2.86,0,0,0,.5-1.8,2.82,2.82,0,0,0-.5-1.8,1.87,1.87,0,0,0-2.78,0,2.82,2.82,0,0,0-.5,1.8,2.87,2.87,0,0,0,.5,1.81,1.7,1.7,0,0,0,1.39.62A1.68,1.68,0,0,0,415.23,49Z"/><path class="cls-1" d="M13.15,26.66h0A12.42,12.42,0,0,1,25.57,39.08V51.5a0,0,0,0,1,0,0H.73a0,0,0,0,1,0,0V39.08A12.42,12.42,0,0,1,13.15,26.66Z" transform="translate(26.29 78.16) rotate(180)"/><rect class="cls-1" x="25.7" y="1.34" width="24.84" height="24.84" transform="translate(76.24 27.51) rotate(180)"/><circle class="cls-1" cx="38.12" cy="39.38" r="13.15"/><circle class="cls-1" cx="13.15" cy="13.51" r="13.15"/></g></g></svg>