<svg xmlns="http://www.w3.org/2000/svg" viewBox="0 0 312.32 46.09"><defs><style>.cls-1{fill:#c6b796;}.cls-2{fill:#fff;}</style></defs><g id="Capa_2" data-name="Capa 2"><g id="Layer_1" data-name="Layer 1"><path class="cls-1" d="M.63,22.9H22.27V34.62A10.81,10.81,0,0,1,11.45,45.44h0A10.82,10.82,0,0,1,.63,34.62Z"/><rect class="cls-1" x="22.39" y="0.84" width="21.64" height="21.64"/><circle class="cls-1" cx="33.21" cy="33.99" r="11.45"/><circle class="cls-1" cx="11.45" cy="11.45" r="11.45"/><path class="cls-2" d="M86.65,40H74l-1.71,5.4H63.75L75.35,11h9.94l11.6,34.4H88.36Zm-2.34-7.37L80.32,20l-4,12.64Z"/><path class="cls-2" d="M100.06,14.24a4.39,4.39,0,1,1,4.38,4.43A4.45,4.45,0,0,1,100.06,14.24Zm.73,6.59h7.31V45.4h-7.31Z"/><path class="cls-2" d="M129.3,20.34v8.35c-3-.49-7.31.74-7.31,5.61V45.4h-7.31V20.83H122V25.2C123,21.91,126.23,20.34,129.3,20.34Z"/><path class="cls-2" d="M157,20.83V45.4h-7.31V43.09c-1.32,1.82-3.76,3-7,3-4.93,0-9.12-3.54-9.12-10.17V20.83h7.31v14c0,3,1.9,4.47,4.24,4.47,2.68,0,4.54-1.57,4.54-5.06V20.83Z"/><path class="cls-2" d="M172.83,27.91v8.7c0,2.11,1.8,2.31,5,2.11V45.4c-9.55,1-12.33-1.91-12.33-8.79v-8.7h-3.9V20.83h3.9V16.16L172.83,14v6.88h5v7.08Z"/><path class="cls-2" d="M199.33,32.74V27.27h3.52v.65H200.1v1.72h2.59v.64H200.1V32.1h2.75v.64Z"/><path class="cls-2" d="M213.33,33.75l-.55.46a4.16,4.16,0,0,1-.65-.62,6,6,0,0,1-.56-.79h-.26a2.51,2.51,0,0,1-1.33-.34,2.3,2.3,0,0,1-.88-1,3.71,3.71,0,0,1,0-3,2.16,2.16,0,0,1,.87-1,2.83,2.83,0,0,1,2.69,0,2.16,2.16,0,0,1,.87,1,3.4,3.4,0,0,1,.31,1.48,3.25,3.25,0,0,1-.4,1.65,2.16,2.16,0,0,1-1.1,1A4.2,4.2,0,0,0,213.33,33.75Zm-3.28-2.15a1.56,1.56,0,0,0,1.26.56,1.54,1.54,0,0,0,1.27-.56A2.52,2.52,0,0,0,213,30a2.47,2.47,0,0,0-.46-1.59,1.73,1.73,0,0,0-2.53,0A2.47,2.47,0,0,0,209.6,30,2.52,2.52,0,0,0,210.05,31.6Z"/><path class="cls-2" d="M220.62,32.23a2.27,2.27,0,0,1-.56-1.66v-3.3h.77v3.35a1.59,1.59,0,0,0,.37,1.15,1.65,1.65,0,0,0,2.13,0,1.65,1.65,0,0,0,.36-1.15V27.27h.78v3.3a2.27,2.27,0,0,1-.56,1.66,2.21,2.21,0,0,1-1.64.57A2.23,2.23,0,0,1,220.62,32.23Z"/><path class="cls-2" d="M230.87,32.74V27.27h.79v5.47Z"/><path class="cls-2" d="M238.1,27.27h2.25a1.93,1.93,0,0,1,1.33.42,1.59,1.59,0,0,1,0,2.28,2,2,0,0,1-1.33.42h-1.47v2.35h-.78Zm2.16,2.49a1.29,1.29,0,0,0,.85-.24,1,1,0,0,0,0-1.37,1.29,1.29,0,0,0-.85-.24h-1.38v1.85Z"/><path class="cls-2" d="M251.85,32.74l-.58-1.35h-2.74L248,32.74h-.8l2.42-5.47h.66l2.42,5.47Zm-3-2H251l-1.11-2.6Z"/><path class="cls-2" d="M263.1,27.27h.63v5.47H263V29l-1.61,3.75h-.54L259.24,29v3.73h-.71V27.27h.63l2,4.52Z"/><path class="cls-2" d="M270.18,32.74V27.27H271v5.47Z"/><path class="cls-2" d="M277.41,32.74V27.27h3.51v.65h-2.74v1.72h2.59v.64h-2.59V32.1h2.74v.64Z"/><path class="cls-2" d="M290.79,27.27h.74v5.47h-.6l-3.11-4.13v4.13h-.73V27.27h.59l3.11,4.14Z"/><path class="cls-2" d="M299.27,32.74V27.93h-1.83v-.66h4.46v.66h-1.84v4.81Z"/><path class="cls-2" d="M308.47,32.46a2.3,2.3,0,0,1-.88-1,3.4,3.4,0,0,1-.31-1.48,3.28,3.28,0,0,1,.31-1.49,2.16,2.16,0,0,1,.87-1,2.83,2.83,0,0,1,2.69,0,2.16,2.16,0,0,1,.87,1,3.4,3.4,0,0,1,.3,1.48,3.45,3.45,0,0,1-.3,1.49,2.24,2.24,0,0,1-.88,1,2.79,2.79,0,0,1-2.67,0Zm2.6-.86a2.52,2.52,0,0,0,.45-1.6,2.47,2.47,0,0,0-.45-1.59,1.73,1.73,0,0,0-2.53,0,2.47,2.47,0,0,0-.45,1.59,2.52,2.52,0,0,0,.45,1.6,1.56,1.56,0,0,0,1.26.56A1.54,1.54,0,0,0,311.07,31.6Z"/><path class="cls-2" d="M203.72,42.13v2.58a3.34,3.34,0,0,1-.86.28,5.46,5.46,0,0,1-1.07.1,2.92,2.92,0,0,1-1.42-.33,2.21,2.21,0,0,1-.92-1,3.76,3.76,0,0,1,0-3,2.31,2.31,0,0,1,.91-1,2.8,2.8,0,0,1,1.39-.33,3.21,3.21,0,0,1,1.05.17,2.3,2.3,0,0,1,.83.5l-.28.59a2.71,2.71,0,0,0-.76-.46,2.45,2.45,0,0,0-.83-.14,1.66,1.66,0,0,0-1.35.55,2.36,2.36,0,0,0-.46,1.58,2.46,2.46,0,0,0,.47,1.62,1.77,1.77,0,0,0,1.4.54,4,4,0,0,0,1.19-.18V42.73h-1.27v-.6Z"/><path class="cls-2" d="M213.71,45l-.58-1.35h-2.74L209.81,45H209l2.42-5.47h.66L214.51,45Zm-3.05-2h2.21l-1.11-2.6Z"/><path class="cls-2" d="M220.43,44.92a2.6,2.6,0,0,1-.91-.5l.29-.59a2.52,2.52,0,0,0,.82.47,2.85,2.85,0,0,0,1,.15,1.67,1.67,0,0,0,.94-.23.76.76,0,0,0,.34-.66.59.59,0,0,0-.31-.53,3.75,3.75,0,0,0-1-.33,5.93,5.93,0,0,1-1.06-.32,1.65,1.65,0,0,1-.65-.49,1.21,1.21,0,0,1-.24-.78,1.53,1.53,0,0,1,.25-.84,1.73,1.73,0,0,1,.72-.57,2.67,2.67,0,0,1,1.06-.2,3.12,3.12,0,0,1,1.07.18,2.22,2.22,0,0,1,.83.5l-.28.58a2.58,2.58,0,0,0-.77-.46,2.32,2.32,0,0,0-.84-.15,1.48,1.48,0,0,0-.92.25.78.78,0,0,0-.34.68.65.65,0,0,0,.29.56,3.37,3.37,0,0,0,.94.34,7.23,7.23,0,0,1,1.1.32,1.85,1.85,0,0,1,.67.46,1.12,1.12,0,0,1,.25.76,1.38,1.38,0,0,1-.25.83,1.69,1.69,0,0,1-.72.55,2.85,2.85,0,0,1-1.1.19A3.47,3.47,0,0,1,220.43,44.92Z"/><path class="cls-2" d="M230.45,45V40.22h-1.83v-.66h4.46v.66h-1.83V45Z"/><path class="cls-2" d="M242.8,45H242l-.68-1.82a.68.68,0,0,0-.31-.4,1.16,1.16,0,0,0-.57-.11h-1.18V45h-.78V39.56h2.23a2.11,2.11,0,0,1,1.37.4,1.41,1.41,0,0,1,.47,1.15,1.47,1.47,0,0,1-.28.91,1.44,1.44,0,0,1-.8.53.91.91,0,0,1,.69.68Zm-2.21-3a1.34,1.34,0,0,0,.88-.24,1,1,0,0,0,0-1.39,1.37,1.37,0,0,0-.89-.23h-1.36v1.86Z"/><path class="cls-2" d="M249.36,44.75a2.3,2.3,0,0,1-.88-1,3.83,3.83,0,0,1,0-3,2.19,2.19,0,0,1,.88-1,2.81,2.81,0,0,1,2.68,0,2.16,2.16,0,0,1,.87,1,3.26,3.26,0,0,1,.31,1.48,3.31,3.31,0,0,1-.31,1.49,2.22,2.22,0,0,1-.87,1,2.81,2.81,0,0,1-2.68,0Zm2.6-.86a2.46,2.46,0,0,0,.46-1.6A2.41,2.41,0,0,0,252,40.7a1.73,1.73,0,0,0-2.53,0,3,3,0,0,0,0,3.19,1.7,1.7,0,0,0,2.52,0Z"/><path class="cls-2" d="M262.65,39.56h.74V45h-.6l-3.11-4.13V45h-.74V39.56h.6l3.11,4.14Z"/><path class="cls-2" d="M270.3,44.75a2.3,2.3,0,0,1-.88-1,3.43,3.43,0,0,1-.31-1.48,3.28,3.28,0,0,1,.31-1.49,2.16,2.16,0,0,1,.87-1,2.83,2.83,0,0,1,2.69,0,2.22,2.22,0,0,1,.87,1,3.4,3.4,0,0,1,.3,1.48,3.45,3.45,0,0,1-.3,1.49,2.24,2.24,0,0,1-.88,1,2.52,2.52,0,0,1-1.34.34A2.48,2.48,0,0,1,270.3,44.75Zm2.6-.86a2.52,2.52,0,0,0,.45-1.6,2.47,2.47,0,0,0-.45-1.59,1.73,1.73,0,0,0-2.53,0,2.47,2.47,0,0,0-.45,1.59,2.52,2.52,0,0,0,.45,1.6,1.71,1.71,0,0,0,2.53,0Zm-1-4.8h-.51l.78-1.18h.79Z"/><path class="cls-2" d="M284.44,39.56h.63V45h-.7V41.27L282.76,45h-.54l-1.63-3.73V45h-.71V39.56h.63l2,4.52Z"/><path class="cls-2" d="M291,45V39.56h.79V45Z"/><path class="cls-2" d="M298.7,44.75a2.32,2.32,0,0,1-.89-1,3.31,3.31,0,0,1-.31-1.49,3.26,3.26,0,0,1,.31-1.48,2.27,2.27,0,0,1,.89-1,2.65,2.65,0,0,1,1.37-.34,3.09,3.09,0,0,1,1,.17,2.24,2.24,0,0,1,.81.51l-.28.58a2.76,2.76,0,0,0-.75-.46,2.28,2.28,0,0,0-.8-.14,1.62,1.62,0,0,0-1.31.55,2.94,2.94,0,0,0,0,3.16,1.59,1.59,0,0,0,1.31.56,2.28,2.28,0,0,0,.8-.14,2.76,2.76,0,0,0,.75-.46l.28.59a2.22,2.22,0,0,1-.81.5,3.09,3.09,0,0,1-1,.17A2.65,2.65,0,0,1,298.7,44.75Z"/><path class="cls-2" d="M308.44,44.75a2.28,2.28,0,0,1-.87-1,3.29,3.29,0,0,1-.31-1.48,3.41,3.41,0,0,1,.3-1.49,2.24,2.24,0,0,1,.88-1,2.83,2.83,0,0,1,2.69,0,2.29,2.29,0,0,1,.87,1,3.4,3.4,0,0,1,.3,1.48,3.45,3.45,0,0,1-.3,1.49,2.3,2.3,0,0,1-.88,1,2.81,2.81,0,0,1-2.68,0Zm2.61-.86a2.52,2.52,0,0,0,.45-1.6,2.47,2.47,0,0,0-.45-1.59,1.55,1.55,0,0,0-1.27-.55,1.53,1.53,0,0,0-1.26.55,2.47,2.47,0,0,0-.45,1.59,2.52,2.52,0,0,0,.45,1.6,1.53,1.53,0,0,0,1.26.56A1.55,1.55,0,0,0,311.05,43.89Z"/></g></g></svg>