<?xml version="1.0" encoding="utf-8"?>
<!-- Generator: Adobe Illustrator 25.1.0, SVG Export Plug-In . SVG Version: 6.00 Build 0)  -->
<svg version="1.1" id="Capa_1" xmlns="http://www.w3.org/2000/svg" xmlns:xlink="http://www.w3.org/1999/xlink" x="0px" y="0px"
	 viewBox="0 0 870.2 265.5" style="enable-background:new 0 0 870.2 265.5;" xml:space="preserve">
<style type="text/css">
	.st0{fill:#FFFFFF;}
</style>
<g>
	<g>
		<path class="st0" d="M389.3,109.2V47.1h-21v62.1c0,18.7,15.2,34,34,34c0.9,0,1.8,0,2.5-0.1h16.2v-21l-19.4,0
			C394.7,121.7,389.3,116.1,389.3,109.2z"/>
		<path class="st0" d="M325.9,47.1c-18,0-32.9,14.1-33.9,32.3v0.8c0,0.3,0,42.3,0,60.3v3h18.1l3,0V79.5c0.8-6.5,6.3-11.4,12.8-11.4
			c7.1,0,12.9,5.8,12.9,12.9v0.4c0,5.7-3.9,12.4-9,12.4h-5.4v21h7.3l0.6,0c0.8-0.1,1.5-0.3,2.2-0.5c14.9-3.9,25.3-17.4,25.3-32.8V81
			C359.9,62.3,344.7,47.1,325.9,47.1z"/>
		<path class="st0" d="M623,46.9c-25.9,0-47,21.6-47,48.1c0,26.5,21.1,48,47,48c25.9,0,47-21.6,47-48C670.1,68.4,649,46.9,623,46.9z
			 M623,122.1c-14.1,0-25.5-12.2-25.5-27.2c0-15,11.4-27.2,25.5-27.2s25.5,12.2,25.5,27.2C648.5,109.9,637.1,122.1,623,122.1z"/>
		<path class="st0" d="M550.6,48c-22.5,4.1-38.8,24-38.8,47.3c0,23.5,16.4,43.4,38.9,47.3c1.3,0.3,2.6,0.6,3.9,0.7v0.3h16.5v-21
			h-12.5c-0.6,0-1.1,0-1.8-0.1c-13.2-1.1-23.5-13-23.5-27.1c0-15,11.4-27.2,25.4-27.2l12.3,0V48.8l-2.4-0.5
			C562.8,47,556.7,46.9,550.6,48z"/>
		<path class="st0" d="M468.6,47.1c-18.7,0-34,15.2-34,34v62.6h21v-3.4h0V89.8h0V81c0-7.1,5.8-12.9,12.9-12.9
			c7.1,0,12.9,5.8,12.9,12.9v12.9H467v21h14.5v28.7h21V81C502.5,62.3,487.3,47.1,468.6,47.1z"/>
		<path class="st0" d="M744.6,80.7c0-18.7-15.2-34-34-34c-17.1,0-31.6,12.6-33.9,29.2v67.2h21.1v-12h0V80.8h0v-1.6
			c0.8-6.5,6.3-11.4,12.8-11.4c7.1,0,12.9,5.8,12.9,12.9v0.4c0,5.2-2.8,12.4-9,12.4h-5.4v21.1h2.7c6.3,0,11.8,6,11.8,12.9v15.7h21
			v-17.6l-0.1-3h-0.3c-1-6.8-4.1-13.1-8.8-18.2c5.9-6.3,9.2-14.5,9.2-23.2V80.7z"/>
		<path class="st0" d="M799,48c-1.3-0.3-2.6-0.6-3.9-0.7v-0.3h-38.4v96.5h21l0-75.4H791c0.6,0,1.1,0,1.8,0.1
			c13.2,1.1,23.5,13,23.5,27.1c0,15-11.4,27.2-25.4,27.2h-1.8v20.8c3.3,0.1,6.6-0.1,9.9-0.7c22.5-4.1,38.8-24,38.8-47.3
			C837.8,71.9,821.4,52,799,48z"/>
	</g>
	<g>
		<g>
			<path class="st0" d="M140.9,37.9l15.5-5.5l0.5-0.2c0,0-0.1,0-0.1,0l-40.3,14.3c0,0,0,0-0.1,0L140.9,37.9
				C140.9,37.9,140.9,37.9,140.9,37.9z"/>
			<path class="st0" d="M166.8,71.3L91.5,98l4.3,12.1L171,83.3c16.1-5.7,33.3-2.1,46.4,8l-4.3-12C200.1,69.2,182.8,65.6,166.8,71.3z
				"/>
			<path class="st0" d="M198.5,54.9c-11.4-5.7-24.5-7-36.9-2.6L90.3,77.7c-0.4,2-0.7,4.1-0.8,6.2c-0.1,2.6,0.1,5.3,0.6,7.9
				c0.2-0.1,0.3-0.1,0.5-0.2l75.6-26.9c3.8-1.3,7.6-2.1,11.5-2.4c11.6-0.9,23.2,2.6,32.9,9.6l-4.4-12.5
				C203.7,57.8,201.2,56.2,198.5,54.9z"/>
			<path class="st0" d="M116.5,46.5c-9.9,3.5-17.5,10.5-22.2,19.1c-0.7,1.4-1.3,2.8-1.9,4.3c0.1-0.1,0.2-0.1,0.4-0.2l71.4-25.3
				c2.5-0.9,5-1.5,7.5-1.8c1.1-0.2,2.3-0.3,3.4-0.3c9.3-0.5,18.6,2.4,27,7.8c-5.8-10.4-15.6-17.5-26.8-20c-6-0.7-12.3-0.1-18.4,2
				L116.5,46.5z"/>
		</g>
		<g>
			<path class="st0" d="M38.5,131.7L33,116.2l-0.2-0.5c0,0,0,0.1,0,0.1l14.3,40.3c0,0,0,0,0,0.1L38.5,131.7
				C38.5,131.7,38.5,131.7,38.5,131.7z"/>
			<path class="st0" d="M71.9,105.9l26.7,75.3l12.1-4.3l-26.7-75.2c-5.7-16.1-2.1-33.3,8-46.4l-12,4.3
				C69.8,72.6,66.2,89.8,71.9,105.9z"/>
			<path class="st0" d="M55.5,74.1c-5.7,11.4-7,24.5-2.6,36.9l25.4,71.4c2.1,0.4,4.1,0.7,6.3,0.8c2.6,0.1,5.3-0.1,7.9-0.6
				c-0.1-0.2-0.1-0.3-0.2-0.5l-26.9-75.6c-1.4-3.8-2.1-7.6-2.4-11.5c-0.9-11.6,2.6-23.2,9.6-32.9l-12.5,4.4
				C58.4,69,56.8,71.5,55.5,74.1z"/>
			<path class="st0" d="M47.1,156.1c3.5,9.9,10.5,17.5,19.1,22.2c1.4,0.7,2.8,1.3,4.3,1.9c-0.1-0.1-0.1-0.2-0.2-0.4l-25.3-71.4
				c-0.9-2.5-1.4-5-1.8-7.5c-0.2-1.1-0.3-2.3-0.3-3.4c-0.5-9.3,2.4-18.6,7.8-27c-10.4,5.8-17.5,15.6-20,26.8c-0.7,6-0.1,12.3,2,18.4
				L47.1,156.1z"/>
		</g>
		<g>
			<path class="st0" d="M132.2,233.8l-15.5,5.5l-0.5,0.2c0,0,0.1,0,0.1,0l40.3-14.3c0,0,0,0,0,0L132.2,233.8
				C132.2,233.8,132.2,233.8,132.2,233.8z"/>
			<path class="st0" d="M106.3,200.4l75.3-26.7l-4.3-12.1l-75.2,26.7c-16.1,5.7-33.3,2.1-46.3-8l4.3,12
				C73.1,202.5,90.3,206.1,106.3,200.4z"/>
			<path class="st0" d="M74.6,216.7c11.4,5.7,24.5,7,36.9,2.6l71.4-25.4c0.4-2,0.7-4.1,0.8-6.2c0.1-2.6-0.1-5.3-0.6-7.9
				c-0.2,0.1-0.3,0.1-0.5,0.2L107,206.9c-3.8,1.3-7.6,2.1-11.5,2.4c-11.6,0.9-23.2-2.6-32.9-9.6l4.4,12.5
				C69.4,213.9,72,215.4,74.6,216.7z"/>
			<path class="st0" d="M156.6,225.1c9.9-3.5,17.5-10.5,22.2-19.1c0.7-1.4,1.3-2.8,1.9-4.3c-0.1,0.1-0.2,0.1-0.4,0.2l-71.4,25.3
				c-2.5,0.9-5,1.5-7.5,1.8c-1.1,0.2-2.3,0.3-3.4,0.3c-9.3,0.5-18.6-2.4-27-7.8c5.8,10.4,15.6,17.5,26.8,20c6,0.7,12.3,0.1,18.4-2
				L156.6,225.1z"/>
		</g>
		<g>
			<path class="st0" d="M234.6,140l5.5,15.5l0.2,0.5c0,0,0-0.1,0-0.1L226,115.6c0,0,0,0,0-0.1L234.6,140
				C234.6,140,234.6,140,234.6,140z"/>
			<path class="st0" d="M201.2,165.8l-26.7-75.3l-12.1,4.3l26.7,75.2c5.7,16.1,2.1,33.3-8,46.4l12-4.3
				C203.3,199.1,206.9,181.9,201.2,165.8z"/>
			<path class="st0" d="M217.6,197.6c5.7-11.4,7-24.5,2.6-36.9l-25.4-71.4c-2.1-0.4-4.1-0.7-6.2-0.8c-2.6-0.1-5.3,0.1-7.9,0.6
				c0.1,0.2,0.1,0.3,0.2,0.5l26.9,75.6c1.3,3.8,2.1,7.7,2.4,11.5c0.9,11.6-2.6,23.2-9.6,32.9l12.5-4.4
				C214.7,202.7,216.3,200.2,217.6,197.6z"/>
			<path class="st0" d="M226,115.5c-3.5-9.9-10.5-17.5-19.1-22.2c-1.4-0.7-2.8-1.3-4.3-1.9c0.1,0.1,0.1,0.2,0.2,0.4l25.3,71.4
				c0.9,2.5,1.5,5,1.8,7.5c0.2,1.1,0.3,2.3,0.3,3.4c0.5,9.3-2.4,18.6-7.8,27c10.4-5.8,17.5-15.6,20-26.8c0.7-6,0.1-12.3-2-18.4
				L226,115.5z"/>
		</g>
	</g>
	<g>
		<path class="st0" d="M288.7,163.6H305c4,0,7.2,1.1,9.2,3.1c1.6,1.6,2.4,3.6,2.4,6v0.1c0,4-2.1,6.2-4.6,7.6
			c4.1,1.5,6.6,3.9,6.6,8.6v0.1c0,6.4-5.2,9.6-13.1,9.6h-16.7V163.6z M308.9,173.9c0-2.3-1.8-3.6-5.1-3.6h-7.6v7.4h7.1
			C306.7,177.7,308.9,176.6,308.9,173.9L308.9,173.9z M305.1,184.1h-8.9v7.7h9.2c3.4,0,5.5-1.2,5.5-3.8v-0.1
			C310.8,185.6,309.1,184.1,305.1,184.1z"/>
		<path class="st0" d="M336.2,163.3h7.1l15,35.3h-8.1l-3.2-7.9h-14.8l-3.2,7.9h-7.9L336.2,163.3z M344.3,183.9l-4.7-11.4l-4.7,11.4
			H344.3z"/>
		<path class="st0" d="M367.3,170.7h-10.7v-7.1h29v7.1H375v27.9h-7.7V170.7z"/>
		<path class="st0" d="M391.1,163.6h26.4v6.9h-18.8v7.1h16.5v6.9h-16.5v7.4h19v6.9h-26.7V163.6z"/>
		<path class="st0" d="M425.2,163.6h16c4.5,0,7.9,1.3,10.2,3.5c1.9,2,3,4.7,3,8v0.1c0,5.7-3.1,9.2-7.5,10.9l8.6,12.5h-9l-7.5-11.2
			h-6.1v11.2h-7.7V163.6z M440.7,180.6c3.8,0,5.9-2,5.9-5v-0.1c0-3.3-2.3-5-6.1-5h-7.7v10.1H440.7z"/>
		<path class="st0" d="M461.8,163.6h7.7v35h-7.7V163.6z"/>
		<path class="st0" d="M489.8,163.3h7.1l15,35.3h-8.1l-3.2-7.9h-14.8l-3.2,7.9h-7.9L489.8,163.3z M497.9,183.9l-4.7-11.4l-4.7,11.4
			H497.9z"/>
		<path class="st0" d="M515,193.5l4.6-5.5c3.2,2.6,6.5,4.3,10.5,4.3c3.2,0,5.1-1.3,5.1-3.3v-0.1c0-2-1.2-3-7.1-4.5
			c-7.1-1.8-11.6-3.8-11.6-10.7v-0.1c0-6.4,5.1-10.6,12.3-10.6c5.1,0,9.5,1.6,13,4.5l-4,5.8c-3.1-2.1-6.2-3.5-9.1-3.5
			s-4.5,1.4-4.5,3.1v0.1c0,2.3,1.5,3.1,7.6,4.6c7.1,1.8,11.1,4.4,11.1,10.5v0.1c0,7-5.3,10.9-12.9,10.9
			C524.5,199.1,519.2,197.2,515,193.5z"/>
	</g>
</g>
</svg>
