<?xml version="1.0" encoding="utf-8"?>
<!-- Generator: Adobe Illustrator 15.0.0, SVG Export Plug-In . SVG Version: 6.00 Build 0)  -->
<!DOCTYPE svg PUBLIC "-//W3C//DTD SVG 1.1//EN" "http://www.w3.org/Graphics/SVG/1.1/DTD/svg11.dtd">
<svg version="1.1" id="Capa_1" xmlns="http://www.w3.org/2000/svg" xmlns:xlink="http://www.w3.org/1999/xlink" x="0px" y="0px"
	 width="458px" height="137.559px" viewBox="0 0 458 137.559" enable-background="new 0 0 458 137.559" xml:space="preserve">
<g>
	<g>
		<g>
			<path fill="#FFFFFF" d="M32.015,126.39H22.42v-15.498h9.595v2.143h-7.45v4.465h6.031v2.141h-6.031v4.607h7.45V126.39z"/>
			<path fill="#FFFFFF" d="M56.988,126.39h-1.744l-8.871-12.102c-0.057-0.08-0.106-0.168-0.146-0.264
				c-0.038-0.1-0.073-0.199-0.101-0.301c-0.031-0.105-0.054-0.221-0.076-0.346v13.012h-2.144v-15.498h1.527
				c0.347,0,0.648,0.053,0.91,0.15c0.259,0.102,0.464,0.256,0.615,0.467l7.528,10.35c0.196,0.279,0.313,0.639,0.358,1.072v-12.039
				h2.145V126.39z"/>
			<path fill="#FFFFFF" d="M67.102,110.892h1.232c0.333,0,0.644,0.092,0.931,0.271c0.29,0.178,0.492,0.422,0.608,0.723l4.841,11.088
				c0.057,0.143,0.101,0.293,0.134,0.447c0.033,0.156,0.052,0.322,0.059,0.504c0.021-0.361,0.092-0.68,0.207-0.951l4.841-11.088
				c0.13-0.301,0.335-0.545,0.615-0.723c0.283-0.18,0.589-0.271,0.922-0.271h1.235l-6.769,15.498h-2.088L67.102,110.892z"/>
			<path fill="#FFFFFF" d="M97.302,110.892h2.091l6.766,15.498h-1.235c-0.337,0-0.646-0.09-0.919-0.264
				c-0.273-0.178-0.481-0.422-0.617-0.732l-1.083-2.463h-7.928l-1.072,2.463c-0.129,0.303-0.332,0.547-0.61,0.727
				s-0.587,0.27-0.926,0.27h-1.235L97.302,110.892z M98.146,114.31l-2.826,6.479h6.055l-2.828-6.479
				c-0.116-0.254-0.184-0.561-0.205-0.92c-0.014,0.182-0.038,0.346-0.071,0.498S98.195,114.179,98.146,114.31z"/>
			<path fill="#FFFFFF" d="M122.219,113.526c-0.28-0.203-0.567-0.365-0.855-0.486c-0.29-0.119-0.559-0.18-0.811-0.18
				c-0.341,0-0.66,0.047-0.959,0.141c-0.3,0.094-0.563,0.223-0.792,0.391c-0.226,0.166-0.405,0.361-0.54,0.59
				c-0.134,0.227-0.2,0.473-0.2,0.74c0,0.311,0.049,0.574,0.15,0.791c0.102,0.215,0.264,0.408,0.488,0.578
				c0.224,0.17,0.514,0.33,0.872,0.482c0.356,0.15,0.792,0.314,1.304,0.486c0.254,0.102,0.507,0.195,0.764,0.287
				c0.257,0.09,0.506,0.189,0.754,0.293c0.245,0.104,0.485,0.217,0.726,0.34c0.239,0.121,0.465,0.268,0.681,0.432
				c1.089,0.83,1.636,1.949,1.636,3.357c0,0.707-0.146,1.352-0.434,1.938c-0.29,0.584-0.679,1.09-1.169,1.51
				c-0.493,0.422-1.058,0.75-1.702,0.984c-0.641,0.234-1.313,0.352-2.012,0.352c-1.396,0-2.56-0.414-3.498-1.242
				c-0.188-0.166-0.353-0.334-0.5-0.502c-0.144-0.172-0.269-0.336-0.373-0.494c-0.106-0.16-0.193-0.301-0.266-0.434
				c-0.071-0.129-0.13-0.238-0.172-0.322l0.518-0.271c0.276-0.166,0.561-0.25,0.855-0.25c0.469,0,0.868,0.17,1.19,0.51l0.175,0.139
				c0.275,0.23,0.579,0.412,0.917,0.537c0.335,0.125,0.719,0.188,1.153,0.188c0.353,0,0.718-0.055,1.093-0.172
				c0.375-0.115,0.717-0.283,1.023-0.504c0.307-0.219,0.559-0.492,0.759-0.822c0.198-0.328,0.297-0.707,0.297-1.137
				c0-0.42-0.094-0.768-0.283-1.041c-0.186-0.273-0.431-0.51-0.731-0.703c-0.299-0.195-0.634-0.359-1.006-0.496
				c-0.372-0.139-0.738-0.279-1.101-0.426c-0.533-0.207-1.054-0.422-1.563-0.646c-0.509-0.225-0.964-0.496-1.365-0.816
				c-0.4-0.32-0.723-0.713-0.964-1.178c-0.243-0.467-0.363-1.045-0.363-1.736c0-0.635,0.132-1.201,0.396-1.697
				c0.262-0.498,0.611-0.92,1.044-1.262c0.434-0.342,0.928-0.604,1.485-0.781c0.556-0.184,1.127-0.271,1.711-0.271
				c0.424,0,0.849,0.07,1.265,0.217c0.42,0.143,0.813,0.326,1.182,0.551c0.367,0.223,0.7,0.467,0.996,0.732
				c0.295,0.27,0.54,0.521,0.736,0.76l-0.552,0.41c-0.304,0.258-0.655,0.393-1.052,0.393
				C122.79,113.782,122.485,113.696,122.219,113.526z"/>
			<path fill="#FFFFFF" d="M146.518,126.39h-9.592v-15.498h9.592v2.143h-7.45v4.465h6.032v2.141h-6.032v4.607h7.45V126.39z"/>
			<path fill="#FFFFFF" d="M164.063,113.526c-0.281-0.203-0.568-0.365-0.855-0.486c-0.29-0.119-0.559-0.18-0.813-0.18
				c-0.339,0-0.657,0.047-0.957,0.141s-0.563,0.223-0.792,0.391c-0.227,0.166-0.408,0.361-0.542,0.59
				c-0.132,0.227-0.201,0.473-0.201,0.74c0,0.311,0.052,0.574,0.153,0.791c0.102,0.215,0.262,0.408,0.485,0.578
				c0.227,0.17,0.517,0.33,0.875,0.482c0.356,0.15,0.792,0.314,1.303,0.486c0.252,0.102,0.506,0.195,0.763,0.287
				c0.257,0.09,0.507,0.189,0.752,0.293s0.488,0.217,0.726,0.34c0.238,0.121,0.466,0.268,0.684,0.432
				c1.089,0.83,1.636,1.949,1.636,3.357c0,0.707-0.146,1.352-0.434,1.938c-0.29,0.584-0.678,1.09-1.171,1.51
				c-0.491,0.422-1.058,0.75-1.7,0.984c-0.644,0.234-1.313,0.352-2.015,0.352c-1.393,0-2.56-0.414-3.498-1.242
				c-0.186-0.166-0.354-0.334-0.498-0.502c-0.144-0.172-0.268-0.336-0.375-0.494c-0.104-0.16-0.193-0.301-0.263-0.434
				c-0.074-0.129-0.13-0.238-0.175-0.322l0.521-0.271c0.273-0.166,0.558-0.25,0.855-0.25c0.47,0,0.865,0.17,1.19,0.51l0.175,0.139
				c0.273,0.23,0.577,0.412,0.914,0.537s0.721,0.188,1.152,0.188c0.354,0,0.719-0.055,1.096-0.172
				c0.375-0.115,0.714-0.283,1.022-0.504c0.307-0.219,0.559-0.492,0.757-0.822c0.198-0.328,0.299-0.707,0.299-1.137
				c0-0.42-0.094-0.768-0.283-1.041c-0.187-0.273-0.432-0.51-0.73-0.703c-0.3-0.195-0.634-0.359-1.006-0.496
				c-0.373-0.139-0.738-0.279-1.101-0.426c-0.533-0.207-1.056-0.422-1.564-0.646c-0.507-0.225-0.962-0.496-1.363-0.816
				c-0.402-0.32-0.724-0.713-0.964-1.178c-0.243-0.467-0.365-1.045-0.365-1.736c0-0.635,0.132-1.201,0.396-1.697
				c0.264-0.498,0.613-0.92,1.046-1.262s0.929-0.604,1.482-0.781c0.556-0.184,1.126-0.271,1.711-0.271
				c0.427,0,0.849,0.07,1.268,0.217c0.419,0.143,0.811,0.326,1.178,0.551c0.371,0.223,0.703,0.467,0.997,0.732
				c0.297,0.27,0.542,0.521,0.738,0.76l-0.554,0.41c-0.302,0.258-0.653,0.393-1.049,0.393
				C164.631,113.782,164.329,113.696,164.063,113.526z"/>
			<path fill="#FFFFFF" d="M194.957,117.802v2.143h-6.281v6.445h-2.143v-15.498h9.593v2.143h-7.45v4.768H194.957z"/>
			<path fill="#FFFFFF" d="M207.67,126.39v-15.498h2.145v13.355h6.703v2.143H207.67z"/>
			<path fill="#FFFFFF" d="M237.288,126.39h-9.594v-15.498h9.594v2.143h-7.452v4.465h6.031v2.141h-6.031v4.607h7.452V126.39z"/>
			<path fill="#FFFFFF" d="M256.043,118.528c0,0.143,0.033,0.258,0.099,0.346l5.565,7.516h-1.472c-0.42,0-0.79-0.082-1.112-0.242
				c-0.319-0.164-0.584-0.406-0.794-0.73l-3.672-4.953c-0.057-0.08-0.1-0.176-0.126-0.287c-0.023-0.113-0.039-0.189-0.049-0.232
				c-0.014,0.078-0.027,0.146-0.043,0.201c-0.014,0.053-0.033,0.109-0.053,0.17c-0.021,0.063-0.049,0.111-0.076,0.148l-3.669,4.953
				c-0.211,0.324-0.478,0.566-0.798,0.73c-0.323,0.16-0.691,0.242-1.109,0.242h-1.473l5.512-7.451c0-0.014,0.023-0.063,0.076-0.143
				c0.049-0.078,0.074-0.166,0.074-0.268c0-0.117-0.033-0.225-0.096-0.326l-5.405-7.311h1.475c0.417,0,0.786,0.08,1.109,0.242
				c0.321,0.162,0.586,0.408,0.794,0.73l3.51,4.729c0.037,0.049,0.064,0.104,0.082,0.166s0.033,0.121,0.047,0.178
				c0.016,0.074,0.029,0.145,0.043,0.217c0-0.094,0.02-0.191,0.049-0.291c0.034-0.104,0.075-0.193,0.126-0.27l3.496-4.729
				c0.211-0.322,0.476-0.568,0.798-0.73c0.319-0.162,0.691-0.242,1.109-0.242h1.475l-5.372,7.27
				c-0.045,0.041-0.076,0.098-0.091,0.172C256.053,118.405,256.043,118.468,256.043,118.528z"/>
			<path fill="#FFFFFF" d="M274.951,126.39h-2.145v-15.498h2.145V126.39z"/>
			<path fill="#FFFFFF" d="M290.077,126.39h-2.142v-15.498h6.102c0.602,0,1.167,0.111,1.696,0.342
				c0.533,0.227,0.995,0.537,1.39,0.928c0.393,0.395,0.702,0.855,0.93,1.387c0.23,0.529,0.343,1.092,0.343,1.691
				c0,0.332-0.049,0.676-0.153,1.033c-0.102,0.355-0.235,0.686-0.401,0.982c-0.167,0.299-0.357,0.549-0.572,0.746
				c-0.214,0.201-0.438,0.307-0.669,0.322c0.053,0,0.121,0.004,0.204,0.014c0.088,0.012,0.18,0.033,0.276,0.061
				c0.1,0.029,0.196,0.064,0.292,0.107c0.098,0.043,0.187,0.102,0.267,0.174c0.434,0.41,0.79,0.893,1.072,1.441
				c0.28,0.555,0.422,1.154,0.422,1.803c0,0.621-0.118,1.199-0.354,1.74c-0.236,0.543-0.553,1.01-0.96,1.412
				c-0.402,0.4-0.875,0.719-1.416,0.951c-0.541,0.236-1.125,0.352-1.743,0.352L290.077,126.39z M290.077,113.034v4.424h3.954
				c0.304,0,0.592-0.059,0.862-0.176c0.269-0.115,0.508-0.271,0.71-0.475c0.2-0.201,0.359-0.438,0.475-0.703
				s0.173-0.551,0.173-0.854c0-0.305-0.058-0.592-0.173-0.859c-0.115-0.271-0.274-0.508-0.475-0.709
				c-0.202-0.201-0.441-0.361-0.71-0.477c-0.271-0.115-0.559-0.172-0.862-0.172H290.077z M294.66,124.247
				c0.324,0,0.626-0.061,0.91-0.184c0.28-0.123,0.525-0.289,0.733-0.504c0.212-0.213,0.376-0.461,0.5-0.742
				c0.125-0.281,0.186-0.58,0.186-0.898c0-0.32-0.061-0.621-0.186-0.9c-0.124-0.283-0.288-0.527-0.5-0.738
				c-0.208-0.209-0.453-0.375-0.733-0.5c-0.284-0.121-0.584-0.184-0.9-0.184h-4.593v4.65H294.66z"/>
			<path fill="#FFFFFF" d="M311.043,126.39v-15.498h2.145v13.355h6.703v2.143H311.043z"/>
			<path fill="#FFFFFF" d="M340.659,126.39h-9.593v-15.498h9.593v2.143h-7.45v4.465h6.031v2.141h-6.031v4.607h7.45V126.39z"/>
			<path fill="#FFFFFF" d="M358.204,113.526c-0.28-0.203-0.568-0.365-0.856-0.486c-0.29-0.119-0.559-0.18-0.813-0.18
				c-0.339,0-0.657,0.047-0.955,0.141c-0.3,0.094-0.564,0.223-0.794,0.391c-0.228,0.166-0.406,0.361-0.541,0.59
				c-0.132,0.227-0.2,0.473-0.2,0.74c0,0.311,0.053,0.574,0.149,0.791c0.105,0.215,0.265,0.408,0.488,0.578
				c0.225,0.17,0.516,0.33,0.874,0.482c0.356,0.15,0.792,0.314,1.304,0.486c0.253,0.102,0.508,0.195,0.765,0.287
				c0.257,0.09,0.506,0.189,0.751,0.293s0.488,0.217,0.728,0.34c0.237,0.121,0.465,0.268,0.681,0.432
				c1.09,0.83,1.635,1.949,1.635,3.357c0,0.707-0.144,1.352-0.434,1.938c-0.288,0.584-0.676,1.09-1.168,1.51
				c-0.49,0.422-1.061,0.75-1.7,0.984c-0.644,0.234-1.313,0.352-2.016,0.352c-1.394,0-2.559-0.414-3.497-1.242
				c-0.187-0.166-0.354-0.334-0.498-0.502c-0.144-0.172-0.269-0.336-0.373-0.494c-0.105-0.16-0.194-0.301-0.265-0.434
				c-0.074-0.129-0.133-0.238-0.175-0.322l0.521-0.271c0.271-0.166,0.558-0.25,0.855-0.25c0.469,0,0.864,0.17,1.191,0.51
				l0.173,0.139c0.272,0.23,0.578,0.412,0.914,0.537c0.337,0.125,0.722,0.188,1.152,0.188c0.354,0,0.72-0.055,1.096-0.172
				c0.375-0.115,0.716-0.283,1.023-0.504c0.307-0.219,0.558-0.492,0.757-0.822c0.198-0.328,0.297-0.707,0.297-1.137
				c0-0.42-0.093-0.768-0.279-1.041c-0.188-0.273-0.433-0.51-0.732-0.703c-0.299-0.195-0.636-0.359-1.006-0.496
				c-0.371-0.139-0.737-0.279-1.101-0.426c-0.535-0.207-1.055-0.422-1.564-0.646c-0.506-0.225-0.966-0.496-1.362-0.816
				c-0.402-0.32-0.724-0.713-0.967-1.178c-0.239-0.467-0.364-1.045-0.364-1.736c0-0.635,0.135-1.201,0.397-1.697
				c0.265-0.498,0.612-0.92,1.045-1.262c0.436-0.342,0.928-0.604,1.484-0.781c0.557-0.184,1.126-0.271,1.71-0.271
				c0.427,0,0.849,0.07,1.269,0.217c0.421,0.143,0.812,0.326,1.178,0.551c0.371,0.223,0.702,0.467,0.998,0.732
				c0.296,0.27,0.543,0.521,0.737,0.76l-0.555,0.41c-0.302,0.258-0.651,0.393-1.047,0.393
				C358.771,113.782,358.471,113.696,358.204,113.526z"/>
		</g>
	</g>
	<path fill="#FFFFFF" d="M30.495,96.358h-7.947V61.583h14.047c1.619,0,3.146,0.328,4.579,0.982c1.433,0.656,2.682,1.537,3.743,2.645
		c1.061,1.109,1.9,2.395,2.515,3.857c0.615,1.467,0.923,3,0.923,4.6c0,1.602-0.308,3.137-0.923,4.6
		c-0.615,1.465-1.454,2.752-2.515,3.859c-1.061,1.107-2.31,1.988-3.743,2.645c-1.433,0.654-2.96,0.982-4.579,0.982h-6.1V96.358z
		 M36.618,77.794c0.485,0,0.954-0.123,1.409-0.365c0.452-0.242,0.853-0.559,1.202-0.945c0.349-0.389,0.629-0.83,0.839-1.324
		c0.209-0.492,0.315-0.99,0.315-1.492c0-0.5-0.106-1-0.315-1.492c-0.21-0.492-0.49-0.934-0.839-1.322
		c-0.349-0.389-0.75-0.705-1.202-0.947c-0.455-0.24-0.924-0.363-1.409-0.363h-6.124v8.252H36.618z"/>
	<path fill="#FFFFFF" d="M54.865,96.358V61.583h7.947v27.35h13.752v7.426H54.865z"/>
	<path fill="#FFFFFF" d="M93.378,61.583h6.853l15.211,34.775h-5.128c-0.533,0-1.049-0.066-1.542-0.207
		c-0.495-0.137-0.952-0.34-1.374-0.605c-0.421-0.266-0.801-0.59-1.141-0.971c-0.341-0.379-0.618-0.814-0.827-1.299l-1.702-3.859
		H89.88l-1.654,3.859c-0.193,0.438-0.464,0.84-0.813,1.215c-0.349,0.371-0.74,0.699-1.179,0.982
		c-0.438,0.281-0.908,0.502-1.409,0.654c-0.502,0.154-1.004,0.23-1.506,0.23h-5.152L93.378,61.583z M93.062,82.21h7.437
		l-3.039-7.279c-0.143-0.34-0.259-0.656-0.339-0.949c-0.083-0.289-0.146-0.549-0.195-0.775c-0.064-0.258-0.104-0.502-0.121-0.727
		c-0.033,0.225-0.08,0.475-0.146,0.752c-0.05,0.225-0.118,0.484-0.205,0.773c-0.09,0.293-0.201,0.602-0.33,0.926L93.062,82.21z
		 M103.949,54.981c-0.841,1.117-2.204,1.674-4.082,1.674H95.25c0.761-1.357,1.393-2.482,1.897-3.373
		c0.5-0.889,0.905-1.602,1.214-2.135c0.306-0.533,0.538-0.926,0.693-1.176c0.153-0.252,0.262-0.418,0.328-0.498
		c0.42-0.551,0.971-0.955,1.652-1.213c0.679-0.26,1.482-0.389,2.406-0.389h6.05L103.949,54.981z"/>
	<path fill="#FFFFFF" d="M129.245,69.204c-0.422,0-0.832,0.035-1.228,0.107c-0.396,0.072-0.75,0.191-1.059,0.354
		c-0.306,0.16-0.554,0.363-0.74,0.605c-0.186,0.244-0.28,0.533-0.28,0.875c0,0.516,0.132,0.922,0.392,1.213
		c0.259,0.291,0.65,0.545,1.176,0.766c0.528,0.215,1.183,0.436,1.971,0.654c0.785,0.219,1.704,0.504,2.757,0.859
		c1.344,0.455,2.572,1.006,3.682,1.664c1.11,0.654,2.058,1.424,2.842,2.305c0.787,0.881,1.397,1.871,1.836,2.973
		c0.436,1.102,0.655,2.328,0.655,3.688c0,1.684-0.356,3.225-1.068,4.625c-0.714,1.4-1.666,2.6-2.856,3.604
		c-1.19,1.004-2.564,1.785-4.12,2.342c-1.555,0.557-3.165,0.838-4.833,0.838c-1.426,0-2.784-0.213-4.071-0.631
		c-1.289-0.42-2.472-1.008-3.546-1.762c-1.08-0.752-2.023-1.648-2.833-2.691c-0.809-1.043-1.442-2.18-1.895-3.41l2.526-1.457
		c0.405-0.225,0.838-0.408,1.3-0.547c0.462-0.137,0.926-0.203,1.398-0.203c0.695,0,1.325,0.145,1.883,0.434
		c0.559,0.293,1.106,0.609,1.641,0.947c0.535,0.34,1.084,0.656,1.652,0.947c0.565,0.293,1.213,0.438,1.944,0.438
		c0.486,0,1.016-0.078,1.591-0.23c0.575-0.156,1.11-0.379,1.603-0.67c0.495-0.289,0.905-0.648,1.228-1.08
		c0.326-0.426,0.485-0.926,0.485-1.492c0-0.531-0.15-0.971-0.448-1.309c-0.302-0.34-0.707-0.635-1.216-0.887
		c-0.511-0.25-1.098-0.48-1.76-0.691c-0.665-0.209-1.362-0.463-2.091-0.75c-1.199-0.457-2.382-0.949-3.546-1.482
		c-1.167-0.535-2.213-1.191-3.135-1.977c-0.924-0.787-1.673-1.742-2.248-2.867c-0.575-1.123-0.863-2.518-0.863-4.186
		c0-1.566,0.318-2.963,0.959-4.186c0.642-1.221,1.487-2.254,2.541-3.094c1.051-0.84,2.256-1.484,3.606-1.928
		c1.353-0.445,2.744-0.668,4.169-0.668c1.037,0,2.043,0.172,3.023,0.521c0.981,0.346,1.909,0.801,2.784,1.361
		c0.875,0.557,1.692,1.191,2.454,1.902c0.761,0.713,1.449,1.441,2.066,2.184l-2.455,2.064c-0.486,0.42-0.993,0.719-1.518,0.896
		c-0.528,0.18-1.115,0.268-1.763,0.268c-0.518,0-0.971-0.064-1.359-0.195c-0.389-0.127-0.754-0.27-1.094-0.426
		c-0.339-0.152-0.682-0.293-1.021-0.424C130.023,69.267,129.648,69.204,129.245,69.204z"/>
	<path fill="#FFFFFF" d="M144.117,68.985V61.56h27.312v7.426h-9.67v27.373h-7.945V68.985H144.117z"/>
	<path fill="#FFFFFF" d="M185.645,96.358h-7.971V61.583h7.971V96.358z"/>
	<path fill="#FFFFFF" d="M200.854,78.958c0,1.344,0.269,2.609,0.802,3.797c0.535,1.191,1.255,2.23,2.163,3.121
		c0.907,0.889,1.961,1.588,3.159,2.098c1.199,0.51,2.472,0.766,3.815,0.766c1.037,0,2.013-0.158,2.927-0.475
		c0.915-0.314,1.77-0.738,2.564-1.273c0.86-0.584,1.831-0.873,2.916-0.873c0.841,0,1.563,0.133,2.163,0.398
		c0.599,0.27,1.15,0.652,1.652,1.152l2.065,2.064c-1.004,1.068-2.069,2.029-3.196,2.887c-1.125,0.859-2.291,1.588-3.498,2.186
		c-1.207,0.598-2.452,1.061-3.731,1.383c-1.28,0.324-2.567,0.486-3.863,0.486c-1.635,0-3.214-0.213-4.737-0.631
		c-1.525-0.42-2.951-1.016-4.278-1.785c-1.329-0.768-2.536-1.689-3.62-2.768c-1.086-1.074-2.017-2.266-2.795-3.58
		c-0.778-1.307-1.381-2.719-1.811-4.232c-0.429-1.512-0.643-3.086-0.643-4.721c0-1.633,0.214-3.209,0.643-4.719
		c0.43-1.512,1.033-2.924,1.811-4.234s1.709-2.504,2.795-3.58c1.084-1.074,2.291-2,3.62-2.768c1.327-0.77,2.753-1.363,4.278-1.785
		c1.522-0.418,3.102-0.629,4.737-0.629c1.296,0,2.583,0.16,3.863,0.486c1.279,0.322,2.524,0.785,3.731,1.381
		c1.207,0.6,2.373,1.33,3.498,2.186c1.126,0.857,2.192,1.818,3.196,2.887l-2.065,2.063c-0.488,0.484-1.044,0.871-1.678,1.15
		c-0.632,0.287-1.344,0.43-2.138,0.43c-1.067,0-2.041-0.301-2.916-0.898c-0.808-0.551-1.673-0.979-2.588-1.287
		c-0.915-0.307-1.883-0.459-2.904-0.459c-1.343,0-2.616,0.256-3.815,0.773c-1.198,0.52-2.251,1.219-3.159,2.102
		c-0.908,0.881-1.628,1.914-2.163,3.104C201.122,76.349,200.854,77.614,200.854,78.958z"/>
	<path fill="#FFFFFF" d="M229.358,78.958c0-1.633,0.214-3.209,0.643-4.719c0.429-1.512,1.032-2.924,1.81-4.234
		s1.709-2.504,2.795-3.58c1.084-1.074,2.294-2,3.622-2.768c1.327-0.77,2.751-1.363,4.276-1.785c1.523-0.418,3.102-0.629,4.738-0.629
		c1.635,0,3.214,0.211,4.739,0.629c1.522,0.422,2.946,1.016,4.275,1.785c1.331,0.768,2.535,1.693,3.621,2.768
		c1.086,1.076,2.018,2.27,2.794,3.58c0.778,1.311,1.381,2.723,1.812,4.234c0.428,1.51,0.642,3.086,0.642,4.719
		c0,1.635-0.214,3.209-0.642,4.721c-0.431,1.514-1.033,2.926-1.812,4.232c-0.776,1.314-1.708,2.506-2.794,3.58
		c-1.086,1.078-2.29,2-3.621,2.768c-1.329,0.77-2.753,1.365-4.275,1.785c-1.525,0.418-3.104,0.631-4.739,0.631
		c-1.652,0-3.236-0.213-4.752-0.631c-1.514-0.42-2.936-1.016-4.263-1.785c-1.327-0.768-2.538-1.689-3.622-2.768
		c-1.086-1.074-2.017-2.266-2.795-3.58c-0.778-1.307-1.381-2.719-1.81-4.232C229.572,82.167,229.358,80.593,229.358,78.958z
		 M237.303,78.958c0,1.344,0.269,2.609,0.802,3.797c0.535,1.191,1.255,2.23,2.164,3.121c0.906,0.889,1.959,1.588,3.16,2.098
		c1.196,0.51,2.467,0.766,3.813,0.766c1.329,0,2.598-0.256,3.804-0.766c1.204-0.51,2.263-1.209,3.17-2.098
		c0.906-0.891,1.628-1.93,2.161-3.121c0.537-1.188,0.804-2.453,0.804-3.797s-0.267-2.609-0.804-3.799
		c-0.533-1.189-1.255-2.223-2.161-3.104c-0.907-0.883-1.966-1.582-3.17-2.102c-1.206-0.518-2.475-0.773-3.804-0.773
		c-1.347,0-2.617,0.256-3.813,0.773c-1.201,0.52-2.254,1.219-3.16,2.102c-0.909,0.881-1.629,1.914-2.164,3.104
		C237.571,76.349,237.303,77.614,237.303,78.958z"/>
	<path fill="#FFFFFF" d="M282.015,69.204c-0.421,0-0.831,0.035-1.228,0.107c-0.397,0.072-0.75,0.191-1.057,0.354
		c-0.308,0.16-0.555,0.363-0.742,0.605c-0.187,0.244-0.279,0.533-0.279,0.875c0,0.516,0.13,0.922,0.389,1.213
		s0.654,0.545,1.179,0.766c0.527,0.215,1.184,0.436,1.968,0.654c0.786,0.219,1.706,0.504,2.761,0.859
		c1.343,0.455,2.57,1.006,3.68,1.664c1.108,0.654,2.055,1.424,2.843,2.305c0.786,0.881,1.398,1.871,1.833,2.973
		c0.439,1.102,0.659,2.328,0.659,3.688c0,1.684-0.36,3.225-1.07,4.625c-0.712,1.4-1.663,2.6-2.854,3.604
		c-1.192,1.004-2.564,1.785-4.121,2.342c-1.555,0.557-3.167,0.838-4.835,0.838c-1.426,0-2.78-0.213-4.07-0.631
		c-1.288-0.42-2.469-1.008-3.547-1.762c-1.078-0.752-2.021-1.648-2.831-2.691c-0.812-1.043-1.442-2.18-1.896-3.41l2.527-1.457
		c0.405-0.225,0.839-0.408,1.298-0.547c0.465-0.137,0.929-0.203,1.399-0.203c0.696,0,1.323,0.145,1.883,0.434
		c0.561,0.293,1.107,0.609,1.639,0.947c0.535,0.34,1.088,0.656,1.652,0.947c0.569,0.293,1.216,0.438,1.945,0.438
		c0.484,0,1.018-0.078,1.594-0.23c0.574-0.156,1.107-0.379,1.602-0.67c0.496-0.289,0.902-0.648,1.228-1.08
		c0.323-0.426,0.486-0.926,0.486-1.492c0-0.531-0.149-0.971-0.449-1.309c-0.3-0.34-0.704-0.635-1.214-0.887
		c-0.512-0.25-1.098-0.48-1.764-0.691c-0.665-0.209-1.359-0.463-2.092-0.75c-1.196-0.457-2.379-0.949-3.547-1.482
		c-1.163-0.535-2.21-1.191-3.135-1.977c-0.924-0.787-1.669-1.742-2.245-2.867c-0.578-1.123-0.863-2.518-0.863-4.186
		c0-1.566,0.318-2.963,0.961-4.186c0.638-1.221,1.484-2.254,2.537-3.094c1.055-0.84,2.257-1.484,3.609-1.928
		c1.353-0.445,2.743-0.668,4.168-0.668c1.035,0,2.043,0.172,3.025,0.521c0.98,0.346,1.909,0.801,2.78,1.361
		c0.876,0.557,1.695,1.191,2.456,1.902c0.761,0.713,1.449,1.441,2.064,2.184l-2.454,2.064c-0.484,0.42-0.992,0.719-1.52,0.896
		c-0.525,0.18-1.113,0.268-1.761,0.268c-0.52,0-0.971-0.064-1.36-0.195c-0.389-0.127-0.753-0.27-1.094-0.426
		c-0.34-0.152-0.681-0.293-1.02-0.424C282.791,69.267,282.419,69.204,282.015,69.204z"/>
	<path fill="#F1CF00" d="M315.053,73.392c0-2.16,0.286-4.236,0.853-6.23c0.564-1.998,1.364-3.863,2.39-5.592
		c1.025-1.73,2.255-3.305,3.687-4.723c1.435-1.422,3.028-2.639,4.781-3.654c1.753-1.014,3.635-1.797,5.645-2.355
		c2.01-0.553,4.094-0.83,6.256-0.83c2.159,0,4.243,0.277,6.251,0.83c2.012,0.559,3.896,1.342,5.648,2.355
		c1.754,1.016,3.347,2.232,4.779,3.654c1.432,1.418,2.661,2.992,3.688,4.723c1.025,1.729,1.821,3.594,2.388,5.592
		c0.568,1.994,0.851,4.07,0.851,6.23c0,2.156-0.282,4.232-0.851,6.229c-0.566,1.998-1.362,3.861-2.388,5.592
		c-1.027,1.729-2.257,3.303-3.688,4.725c-1.433,1.418-3.025,2.637-4.779,3.65c-1.753,1.014-3.637,1.801-5.648,2.355
		c-2.008,0.557-4.092,0.83-6.251,0.83c-2.184,0-4.271-0.273-6.273-0.83c-1.996-0.555-3.874-1.342-5.627-2.355
		s-3.347-2.232-4.781-3.65c-1.432-1.422-2.661-2.996-3.687-4.725c-1.025-1.73-1.825-3.594-2.39-5.592
		C315.339,77.624,315.053,75.548,315.053,73.392z M325.545,73.392c0,1.771,0.352,3.443,1.058,5.012
		c0.705,1.568,1.658,2.943,2.853,4.115c1.199,1.178,2.59,2.098,4.172,2.771c1.58,0.674,3.262,1.01,5.036,1.01
		c1.753,0,3.426-0.336,5.02-1.01c1.592-0.674,2.987-1.594,4.188-2.771c1.192-1.172,2.146-2.547,2.853-4.115
		c0.706-1.568,1.059-3.24,1.059-5.012c0-1.773-0.353-3.447-1.059-5.014c-0.707-1.57-1.66-2.936-2.853-4.102
		c-1.2-1.164-2.596-2.088-4.188-2.77c-1.594-0.686-3.267-1.027-5.02-1.027c-1.774,0-3.456,0.342-5.036,1.027
		c-1.582,0.682-2.973,1.605-4.172,2.77c-1.194,1.166-2.147,2.531-2.853,4.102C325.896,69.944,325.545,71.618,325.545,73.392z"/>
	<path fill="#F1CF00" d="M377.747,96.358h-8.275V50.454h20.335c1.947,0,3.78,0.363,5.5,1.09c1.725,0.725,3.227,1.719,4.507,2.979
		c1.284,1.26,2.294,2.738,3.033,4.438c0.739,1.697,1.105,3.508,1.105,5.43c0,0.576-0.102,1.271-0.304,2.082
		c-0.204,0.811-0.488,1.594-0.851,2.354c-0.363,0.76-0.81,1.432-1.329,2.02c-0.526,0.588-1.12,0.943-1.782,1.07
		c0.897,0.109,1.729,0.498,2.487,1.17c0.759,0.674,1.416,1.506,1.973,2.5c0.557,0.992,0.994,2.064,1.313,3.221
		c0.321,1.152,0.482,2.252,0.482,3.299c0,1.984-0.379,3.844-1.138,5.57c-0.762,1.73-1.792,3.236-3.098,4.52
		c-1.304,1.283-2.833,2.291-4.587,3.025c-1.755,0.738-3.624,1.105-5.611,1.105L377.747,96.358z M379.959,60.931v6.916h10.234
		c0.448,0,0.876-0.088,1.282-0.27c0.405-0.182,0.759-0.428,1.057-0.738c0.3-0.309,0.537-0.672,0.708-1.088
		c0.17-0.418,0.256-0.861,0.256-1.33s-0.086-0.918-0.256-1.346c-0.171-0.428-0.408-0.801-0.708-1.121
		c-0.298-0.322-0.651-0.572-1.057-0.752c-0.406-0.182-0.834-0.271-1.282-0.271H379.959z M391.893,85.882
		c0.492,0,0.951-0.102,1.379-0.303c0.429-0.203,0.8-0.482,1.121-0.832c0.321-0.354,0.58-0.76,0.771-1.221
		c0.194-0.455,0.29-0.943,0.29-1.455c0-0.514-0.092-0.994-0.272-1.443c-0.181-0.447-0.434-0.834-0.755-1.168
		c-0.319-0.33-0.694-0.598-1.121-0.801c-0.43-0.203-0.889-0.305-1.381-0.305h-11.965v7.527H391.893z"/>
	<text transform="matrix(1.0013 0 0 1 268.6924 96.3564)" fill="#FFFFFF" font-family="'ErasITC-Bold'" font-size="63.157"> </text>
	<path fill="#F1CF00" d="M361.649,14.062c0.611,0.271,1.233,0.541,1.847,0.844c41.832,20.852,74.972,53.221,55.421,81.211
		c-1.272,1.818-1.145,2.145,0.774,0.85c39.049-26.332,0.667-61.615-56.003-84.258c-1.167-0.467-2.362-0.855-3.539-1.268
		C356.346,10.122,357.097,12.042,361.649,14.062z"/>
	<path fill="#F1CF00" d="M433.853,88.13c-4.625,10.658-27.644,25.471-48.863,23.035c-0.629-0.074-1.623,0.904-1.559,1.988
		c0.157,2.51-0.851,8.545-8.742,11.979c-1.337,0.58-2.568,1.402,0.83,0.859c15.068-2.404,56.195-12.48,59.363-37.684
		C435.158,86.116,435.553,84.21,433.853,88.13z"/>
</g>
</svg>
